<?xml version="1.0" encoding="UTF-8" standalone="no"?>
<svg
   xmlns:dc="http://purl.org/dc/elements/1.1/"
   xmlns:cc="http://creativecommons.org/ns#"
   xmlns:rdf="http://www.w3.org/1999/02/22-rdf-syntax-ns#"
   xmlns:svg="http://www.w3.org/2000/svg"
   xmlns="http://www.w3.org/2000/svg"
   width="72.280922mm"
   height="64.186737mm"
   viewBox="0 0 72.280922 64.186737"
   version="1.1"
   id="svg8">
  <defs
     id="defs2" />
  <metadata
     id="metadata5">
    <rdf:RDF>
      <cc:Work
         rdf:about="">
        <dc:format>image/svg+xml</dc:format>
        <dc:type
           rdf:resource="http://purl.org/dc/dcmitype/StillImage" />
        <dc:title></dc:title>
      </cc:Work>
    </rdf:RDF>
  </metadata>
  <g
     id="layer1"
     transform="translate(-63.430286,-12.638779)">
    <path
       style="fill:#000000;stroke-width:0.265251"
       d="m 94.665684,70.602057 c -0.0838,-0.13498 0.12956,-0.57164 0.47425,-0.97035 0.44325,-0.51271 1.40607,-1.3391 1.7477,-1.20866 0.43904,0.16763 -0.22386,0.92412 -0.91175,1.63852 -0.80011,0.83092 -1.06254,0.93918 -1.3102,0.54049 z m 1.27263,-3.65716 c -1.35568,-1.41883 -2.46853,-2.76156 -2.47301,-2.98384 -0.0132,-0.65349 0.67248,-1.44194 2.53939,-2.91999 l 1.75411,-1.38876 2.885946,2.88561 2.88597,2.88562 -1.72209,2.05052 c -2.413966,2.87434 -2.637556,2.85419 -5.870316,-0.52916 z m -3.810785,0.90601 c 0,-0.19291 0.30074,-0.63187 0.668325,-0.97545 0.51143,-0.47805 1.44672,-1.25339 1.68553,-1.01579 0.2388,0.2376 -0.54047,1.16818 -1.02093,1.67703 -0.68083,0.72105 -1.332925,0.87477 -1.332925,0.31421 z m -13.67185,-1.37336 c -2.10091,-0.79691 -6.22559,-4.57685 -7.31702,-6.70545 -1.14473,-2.23257 -1.20145,-5.10853 -0.15046,-7.62942 0.62074,-1.4889 27.434385,-28.17879 29.249971,-29.11497 0.97311,-0.50178 1.86712,-0.7177 3.33436,-0.80533 1.73328,-0.10352 2.25039,-0.022 3.81891,0.60239 l 1.81417,0.72213 1.83248,-1.80929 1.83248,-1.80929 0.69563,0.69212 0.69563,0.69213 1.49769,-0.69868 c 2.91403,-1.35941 6.73996,-0.77568 9.72944,1.48444 4.6827,3.54023 5.5469,9.45953 2.20881,15.12914 -0.59143,1.00452 -4.24655,4.86143 -11.49004,12.12436 l -10.6227,10.65121 1.03221,1.05175 c 0.56771,0.57846 0.98014,1.09435 0.91652,1.14642 -0.0636,0.0521 -0.81223,0.61071 -1.66358,1.24142 l -1.54789,1.14674 -2.89233,-2.8902 -2.892346,-2.89021 1.23732,-1.65538 1.237316,-1.65537 1.08426,1.05874 1.08424,1.05875 10.80991,-10.78045 c 9.70776,-9.68131 10.89304,-10.95581 11.62518,-12.50025 1.56988,-3.31159 0.79575,-6.74359 -2.10674,-9.34004 -2.0008,-1.78983 -4.84861,-2.45543 -6.4021,-1.49633 -0.31652,0.19542 -0.27947,0.33751 0.21725,0.83285 l 0.59889,0.59724 -1.87928,1.88238 -1.87928,1.88238 0.57735,1.69628 c 0.44532,1.30837 0.54877,2.10235 0.45239,3.47198 -0.23426,3.32876 -0.14162,3.218 -15.14625,18.10788 -9.421401,9.34935 -14.007861,13.71998 -14.834531,14.13646 -1.53221,0.77192 -5.17434,0.97213 -6.75786,0.37147 z m 5.10438,-3.18187 c 1.34988,-0.55714 27.244241,-26.26741 27.986421,-27.78745 0.58713,-1.20248 0.66031,-2.3984 0.23912,-3.9076 -0.35979,-1.28917 -3.82984,-4.96099 -5.40569,-5.72 -1.39527,-0.67204 -3.14737,-0.68566 -4.54621,-0.0353 -0.71825,0.33391 -5.437636,4.86461 -14.532001,13.95096 -13.04039,13.02891 -13.47684,13.49752 -13.73702,14.74943 -0.48029,2.31106 0.0532,3.55702 2.64265,6.17241 1.22386,1.23609 2.58418,2.40887 3.02295,2.60618 1.0755,0.48364 3.12145,0.47013 4.32978,-0.0286 z m -2.52733,-3.55806 -1.12269,-1.22996 1.16802,-1.14056 1.16802,-1.14056 1.23033,1.15892 1.23032,1.15891 -1.27565,1.21161 -1.27565,1.21161 z m -3.62229,-3.62628 -1.288,-1.21469 1.21294,-1.20683 1.21295,-1.20684 0.69937,0.64945 c 0.38466,0.35719 0.92136,0.95759 1.19268,1.33421 l 0.4933,0.68477 -1.11762,1.08731 -1.11762,1.08731 z m 9.53159,-2.961 c -0.43877,-0.2735 -1.31971,-1.03526 -1.95766,-1.6928 -1.42603,-1.46986 -1.76554,-3.11475 -0.95282,-4.61628 0.52073,-0.96206 2.08045,-1.92684 3.09933,-1.91712 1.72765,0.0165 4.35006,2.14595 4.97946,4.04343 1.001515,3.0193 -2.49502,5.84908 -5.16831,4.18277 z m 2.52958,-2.54697 c 0.48845,-0.51731 0.55698,-0.73548 0.30865,-0.98257 -0.24833,-0.24708 -0.4733,-0.16429 -1.01318,0.37287 -0.38168,0.37976 -0.61232,0.82191 -0.51253,0.98257 0.2719,0.43772 0.52488,0.36021 1.21706,-0.37287 z m -1.86664,-3.1469 c -0.35871,-0.3569 -1.73763,0.9848 -1.46431,1.42479 0.13589,0.21879 0.42815,0.0915 0.96526,-0.42053 0.52375,-0.49926 0.6835,-0.82074 0.49905,-1.00426 z m 6.516975,-1.25764 c -0.86665,-0.47406 -2.539185,-2.14789 -2.977775,-2.98009 -0.56058,-1.06368 -0.48756,-2.64068 0.17139,-3.7015 0.49298,-0.79366 0.97159,-1.09978 2.454155,-1.56969 0.82434,-0.26128 2.39378,0.38851 3.59157,1.48704 1.62728,1.49243 2.03459,2.3582 1.87703,3.98979 -0.10686,1.10648 -0.28915,1.47547 -1.08939,2.20514 -0.81126,0.73973 -1.15853,0.87506 -2.2281,0.86827 -0.69687,-0.004 -1.50636,-0.13896 -1.79888,-0.29896 z m 2.90001,-3.43765 c -0.42707,-0.68753 -1.89784,0.4775 -1.59478,1.26327 0.15107,0.39171 0.27224,0.3542 0.95352,-0.29522 0.42925,-0.40918 0.71781,-0.8448 0.64126,-0.96805 z m -2.78554,-1.39514 c 0.89689,-0.94988 0.41257,-1.43137 -0.53307,-0.52996 -0.41752,0.39801 -0.69649,0.82449 -0.61994,0.94774 0.22674,0.36503 0.5112,0.26197 1.15301,-0.41778 z m 7.574946,-2.02131 c -1.2131,-0.35442 -3.751056,-3.11261 -3.979646,-4.32499 -0.24833,-1.31707 0.47895,-2.90046 1.66813,-3.63171 0.711296,-0.43739 1.192446,-0.52923 2.245326,-0.42858 1.2149,0.11615 1.48983,0.27717 2.94453,1.72455 1.44615,1.43885 1.61552,1.72318 1.71589,2.88049 0.22572,2.60271 -2.09334,4.5109 -4.59423,3.78024 z m 2.06994,-3.73973 c -0.25787,-0.25657 -0.47908,-0.17232 -1.05402,0.40143 -0.6132,0.61193 -0.66492,0.7652 -0.32877,0.9744 0.57702,0.35912 1.85176,-0.90922 1.38279,-1.37583 z m -2.17528,-2.16434 c -0.35932,-0.3575 -1.6109,0.82491 -1.41388,1.33574 0.11613,0.30112 0.31525,0.22614 0.91327,-0.34392 0.50643,-0.48274 0.67553,-0.81777 0.50061,-0.99182 z m 11.96124,-7.44004 0.90209,-0.92604 -0.9036,-0.92759 -0.90361,-0.92759 -1.00995,0.98122 -1.00993,0.98121 0.84985,0.87242 c 0.46742,0.47983 0.92257,0.87242 1.01145,0.87242 0.0888,0 0.56754,-0.41672 1.0637,-0.92605 z"
       id="path72" />
    <path
       d="m 93.282922,29.094301 v 3.215307 q 0,0.669855 -0.4689,1.138754 -0.4689,0.468899 -1.13876,0.468899 h -6.966495 v 6.966498 q 0,0.669856 -0.468899,1.138755 -0.468899,0.468898 -1.138758,0.468898 h -3.215302 q -0.669854,0 -1.138753,-0.468898 -0.4689,-0.468899 -0.4689,-1.138755 v -6.966498 h -6.9665 q -0.669853,0 -1.138753,-0.468899 -0.468899,-0.468899 -0.468899,-1.138754 v -3.215307 q 0,-0.669856 0.468899,-1.138755 0.4689,-0.468898 1.138753,-0.468898 h 6.9665 v -6.966499 q 0,-0.669855 0.4689,-1.138754 0.468899,-0.468899 1.138753,-0.468899 h 3.215302 q 0.669859,0 1.138758,0.468899 0.468899,0.468899 0.468899,1.138754 v 6.966499 h 6.966495 q 0.66986,0 1.13876,0.468898 0.4689,0.468899 0.4689,1.138755 z"
       id="path3017"
       style="fill:currentColor;stroke:#ffffff;stroke-width:0.547434;stroke-miterlimit:4;stroke-dasharray:none;stroke-dashoffset:0;stroke-opacity:1" />
  </g>
</svg>
