<?xml version="1.0" encoding="UTF-8" standalone="no"?>
<svg
   xmlns:dc="http://purl.org/dc/elements/1.1/"
   xmlns:cc="http://creativecommons.org/ns#"
   xmlns:rdf="http://www.w3.org/1999/02/22-rdf-syntax-ns#"
   xmlns:svg="http://www.w3.org/2000/svg"
   xmlns="http://www.w3.org/2000/svg"
   xmlns:sodipodi="http://sodipodi.sourceforge.net/DTD/sodipodi-0.dtd"
   xmlns:inkscape="http://www.inkscape.org/namespaces/inkscape"
   width="34.230885mm"
   height="39.63512mm"
   viewBox="0 0 34.230885 39.63512"
   version="1.1"
   id="svg8"
   sodipodi:docname="plug.svg"
   inkscape:version="1.0.1 (3bc2e813f5, 2020-09-07)">
  <sodipodi:namedview
     pagecolor="#ffffff"
     bordercolor="#666666"
     borderopacity="1"
     objecttolerance="10"
     gridtolerance="10"
     guidetolerance="10"
     inkscape:pageopacity="0"
     inkscape:pageshadow="2"
     inkscape:window-width="2400"
     inkscape:window-height="1271"
     id="namedview7"
     showgrid="false"
     fit-margin-top="0"
     fit-margin-left="0"
     fit-margin-right="0"
     fit-margin-bottom="0"
     inkscape:zoom="0.73940797"
     inkscape:cx="387.64066"
     inkscape:cy="553.22725"
     inkscape:window-x="-9"
     inkscape:window-y="-9"
     inkscape:window-maximized="1"
     inkscape:current-layer="svg8" />
  <defs
     id="defs2" />
  <metadata
     id="metadata5">
    <rdf:RDF>
      <cc:Work
         rdf:about="">
        <dc:format>image/svg+xml</dc:format>
        <dc:type
           rdf:resource="http://purl.org/dc/dcmitype/StillImage" />
        <dc:title></dc:title>
      </cc:Work>
    </rdf:RDF>
  </metadata>
  <g
     id="layer1"
     transform="translate(-2.4367424,-2.8409532)">
    <path
       style="fill:#000000;stroke-width:0.264583"
       d="m 3.1482827,41.827248 c -1.31611,-1.219729 -0.96343,-2.152139 2.391645,-6.322936 0.91891,-1.14233 1.67311,-2.213893 1.676,-2.38125 0.003,-0.167354 -0.6185,-0.856096 -1.38086,-1.530535 l -1.386095,-1.226251 0.4764,-1.511299 c 0.465635,-1.477195 0.464465,-1.539081 -0.0519,-2.742497 -1.28457,-2.993718 -1.35041,-6.840136 -0.17468,-10.204859 0.711385,-2.035873 2.051425,-4.372603 3.036675,-5.295287 l 0.66583,-0.6235548 7.5591503,5.8587508 c 11.51652,8.925929 16.38928,12.836404 16.56466,13.293429 0.19713,0.513704 -2.88769,3.705982 -4.80922,4.976744 -2.33946,1.547153 -4.12773,2.05854 -7.7232,2.20858 -3.12689,0.130487 -3.24746,0.157736 -3.95211,0.893233 -0.95302,0.994738 -1.60277,0.957017 -3.31048,-0.192188 -1.02408,-0.689155 -1.5229,-0.882782 -1.81253,-0.703575 -0.21978,0.135991 -1.0323903,1.06988 -1.8058003,2.07531 -2.38911,3.10583 -3.43944,4.07701 -4.409285,4.07701 -0.5399,0 -1.11166,-0.238689 -1.55421,-0.648825 z M 27.943428,23.863394 c -2.83576,-2.103658 -2.83052,-1.733747 -0.0759,-5.35297 3.75789,-4.937401 5.14004,-6.196852 6.80057,-6.196852 0.97411,0 1.99953,1.062682 1.99953,2.072177 0,1.22584 -0.99948,2.940406 -3.42672,5.87838 -1.25642,1.520788 -2.58287,3.211553 -2.94767,3.757256 -0.36481,0.545703 -0.6939,0.992188 -0.73131,0.992188 -0.0374,0 -0.76574,-0.517581 -1.61849,-1.150179 z m -12.60112,-9.879399 -1.79024,-1.474312 0.46733,-0.711408 c 0.25703,-0.391274 1.47936,-2.0129768 2.71628,-3.6037838 4.00829,-5.155042 4.99719,-5.896696 6.74877,-5.061426 1.01207,0.482622 1.55769,1.758149 1.24595,2.912719 -0.22343,0.827486 -6.91551,9.4195158 -7.33326,9.4152348 -0.14552,-0.0015 -1.07019,-0.666152 -2.05483,-1.477024 z"
       id="path40" />
  </g>
</svg>
