<?xml version="1.0" encoding="UTF-8" standalone="no"?>
<svg
   xmlns:dc="http://purl.org/dc/elements/1.1/"
   xmlns:cc="http://creativecommons.org/ns#"
   xmlns:rdf="http://www.w3.org/1999/02/22-rdf-syntax-ns#"
   xmlns:svg="http://www.w3.org/2000/svg"
   xmlns="http://www.w3.org/2000/svg"
   xmlns:sodipodi="http://sodipodi.sourceforge.net/DTD/sodipodi-0.dtd"
   xmlns:inkscape="http://www.inkscape.org/namespaces/inkscape"
   width="59.473mm"
   height="50.936756mm"
   viewBox="0 0 59.473 50.936756"
   version="1.1"
   id="svg8"
   inkscape:version="1.0.1 (3bc2e813f5, 2020-09-07)"
   sodipodi:docname="powerstrip.svg">
  <defs
     id="defs2" />
  <sodipodi:namedview
     id="base"
     pagecolor="#ffffff"
     bordercolor="#666666"
     borderopacity="1.0"
     inkscape:pageopacity="0.0"
     inkscape:pageshadow="2"
     inkscape:zoom="0.70000001"
     inkscape:cx="632.0553"
     inkscape:cy="554.73413"
     inkscape:document-units="mm"
     inkscape:current-layer="layer1"
     inkscape:document-rotation="0"
     showgrid="false"
     inkscape:window-width="1920"
     inkscape:window-height="1001"
     inkscape:window-x="2391"
     inkscape:window-y="746"
     inkscape:window-maximized="1"
     inkscape:snap-page="false"
     fit-margin-top="0"
     fit-margin-left="0"
     fit-margin-right="0"
     fit-margin-bottom="0" />
  <metadata
     id="metadata5">
    <rdf:RDF>
      <cc:Work
         rdf:about="">
        <dc:format>image/svg+xml</dc:format>
        <dc:type
           rdf:resource="http://purl.org/dc/dcmitype/StillImage" />
        <dc:title></dc:title>
      </cc:Work>
    </rdf:RDF>
  </metadata>
  <g
     inkscape:label="Layer 1"
     inkscape:groupmode="layer"
     id="layer1"
     style="display:inline"
     transform="translate(-3.667829,-2.7934182)">
    <path
       style="fill:#000000;stroke-width:0.265251"
       d="m 28.095307,53.506714 c -0.08382,-0.13498 0.129563,-0.57164 0.47425,-0.97035 0.443252,-0.51271 1.406066,-1.339104 1.747695,-1.208664 0.439042,0.16763 -0.223851,0.924124 -0.911746,1.638524 -0.800109,0.83092 -1.06254,0.93918 -1.310199,0.54049 z m 1.27263,-3.65716 c -1.355677,-1.41883 -2.468533,-2.76156 -2.473014,-2.98384 -0.01316,-0.65349 0.672487,-1.44194 2.539389,-2.91999 l 1.754113,-1.38876 2.885955,2.88561 2.885964,2.88562 -1.722092,2.05052 c -2.413967,2.87434 -2.637554,2.85419 -5.870315,-0.52916 z m -3.810782,0.90601 c 0,-0.19291 0.300744,-0.63187 0.668326,-0.97545 0.511425,-0.47805 1.446719,-1.253393 1.685521,-1.015793 0.238804,0.2376 -0.540463,1.168183 -1.020923,1.677033 -0.68083,0.72105 -1.332924,0.87477 -1.332924,0.31421 z m -13.671844,-1.37336 c -2.1009121,-0.79691 -6.2255949,-4.57685 -7.3170212,-6.70545 -1.1447352,-2.23257 -1.2014509,-5.10853 -0.1504678,-7.62942 0.6207461,-1.4889 27.434386,-28.1787898 29.24997,-29.1149698 0.97311,-0.50178 1.867123,-0.7177 3.334362,-0.80533 1.73328,-0.10352 2.250394,-0.022 3.818914,0.60239 l 1.814166,0.72213 1.832479,-1.80929 1.832488,-1.80929 0.695623,0.69212 0.695634,0.69213 1.497692,-0.69868 c 2.914027,-1.3594101 6.739955,-0.77568 9.72944,1.48444 4.682693,3.54023 5.546896,9.4595298 2.208804,15.1291398 -0.591429,1.00452 -4.246547,4.86143 -11.490036,12.12436 l -10.622698,10.65121 1.032208,1.05175 c 0.567709,0.57846 0.980136,1.09435 0.916516,1.14642 -0.06363,0.0521 -0.812231,0.61071 -1.663578,1.24142 l -1.547886,1.14674 -2.892336,-2.8902 -2.892346,-2.89021 1.237321,-1.65538 1.237321,-1.65537 1.084252,1.05874 1.08424,1.05875 10.809911,-10.78045 c 9.70776,-9.68131 10.893039,-10.95581 11.625186,-12.50025 1.569876,-3.31159 0.795748,-6.74359 -2.10674,-9.3400398 -2.000806,-1.78983 -4.848608,-2.45543 -6.402102,-1.49633 -0.316523,0.19542 -0.279467,0.33751 0.217254,0.83285 l 0.598886,0.59724 -1.879285,1.88238 -1.879273,1.8823798 0.577347,1.69628 c 0.445323,1.30837 0.548774,2.10235 0.452389,3.47198 -0.23426,3.32876 -0.141623,3.218 -15.146251,18.10788 -9.421397,9.34935 -14.007856,13.71998 -14.834529,14.13646 -1.532206,0.77192 -5.174339,0.97213 -6.757854,0.37147 z m 5.104377,-3.18187 c 1.349879,-0.55714 27.244237,-26.26741 27.986415,-27.78745 0.587137,-1.20248 0.660316,-2.3984 0.239124,-3.9076 -0.359792,-1.28917 -3.829837,-4.9609898 -5.405694,-5.7199998 -1.395267,-0.67204 -3.14737,-0.68566 -4.546205,-0.0353 -0.718248,0.33391 -5.437645,4.8646098 -14.531997,13.9509598 -13.0403952,13.02891 -13.4768433,13.49752 -13.7370236,14.74943 -0.4802888,2.31106 0.053167,3.55702 2.6426489,6.17241 1.2238557,1.23609 2.5841767,2.40887 3.0229467,2.60618 1.075505,0.48364 3.121449,0.47013 4.329785,-0.0286 z m -2.527329,-3.55806 -1.122693,-1.22996 1.168022,-1.14056 1.168022,-1.14056 1.230326,1.15892 1.230317,1.15891 -1.275645,1.21161 -1.275654,1.21161 z m -3.622291,-3.62628 -1.2879991,-1.21469 1.2129391,-1.20683 1.21295,-1.20684 0.699372,0.64945 c 0.384658,0.35719 0.92136,0.95759 1.192676,1.33421 l 0.493305,0.68477 -1.117628,1.08731 -1.11762,1.08731 z m 9.531591,-2.961 c -0.438768,-0.2735 -1.319716,-1.03526 -1.957658,-1.6928 -1.426032,-1.46986 -1.765542,-3.11475 -0.952828,-4.61628 0.520731,-0.96206 2.080457,-1.92684 3.099338,-1.91712 1.727641,0.0165 4.350057,2.14595 4.979458,4.04343 1.001503,3.0193 -2.495027,5.84908 -5.16831,4.18277 z m 2.529581,-2.54697 c 0.488449,-0.51731 0.556974,-0.73548 0.308644,-0.98257 -0.248331,-0.24708 -0.473294,-0.16429 -1.013173,0.37287 -0.381683,0.37976 -0.612324,0.82191 -0.512532,0.98257 0.2719,0.43772 0.524875,0.36021 1.217061,-0.37287 z m -1.866642,-3.1469 c -0.358716,-0.3569 -1.737631,0.9848 -1.464314,1.42479 0.135895,0.21879 0.428157,0.0915 0.965261,-0.42053 0.523749,-0.49926 0.683502,-0.82074 0.499053,-1.00426 z m 6.516971,-1.25764 c -0.866654,-0.47406 -2.539187,-2.14789 -2.977776,-2.98009 -0.560573,-1.06368 -0.487556,-2.64068 0.171392,-3.7015 0.492983,-0.79366 0.971594,-1.09978 2.454151,-1.56969 0.824341,-0.26128 2.393776,0.38851 3.591568,1.48704 1.627285,1.49243 2.034597,2.3582 1.877033,3.98979 -0.106859,1.10648 -0.289146,1.47547 -1.089387,2.20514 -0.811266,0.73973 -1.158535,0.87506 -2.2281,0.86827 -0.69687,-0.004 -1.506367,-0.13896 -1.798881,-0.29896 z m 2.900005,-3.43765 c -0.42707,-0.68753 -1.897838,0.4775 -1.59478,1.26327 0.15107,0.39171 0.272239,0.3542 0.953521,-0.29522 0.429252,-0.40918 0.717815,-0.8448 0.641259,-0.96805 z m -2.785538,-1.39514 c 0.896887,-0.94988 0.412567,-1.43137 -0.533065,-0.52996 -0.417523,0.39801 -0.696497,0.82449 -0.619941,0.94774 0.226741,0.36503 0.511193,0.26197 1.153006,-0.41778 z m 7.574948,-2.02131 c -1.213098,-0.35442 -3.75106,-3.11261 -3.979651,-4.32499 -0.248331,-1.31707 0.478952,-2.90046 1.668131,-3.63171 0.711302,-0.43739 1.192456,-0.52923 2.245328,-0.42858 1.214909,0.11615 1.489833,0.27717 2.944539,1.72455 1.446143,1.43885 1.615515,1.72318 1.715881,2.88049 0.225728,2.60271 -2.093333,4.5109 -4.594228,3.78024 z m 2.069946,-3.73973 c -0.257869,-0.25657 -0.479083,-0.17232 -1.054019,0.40143 -0.613209,0.61193 -0.664928,0.7652 -0.328775,0.9744 0.577016,0.35912 1.851765,-0.90922 1.382794,-1.37583 z m -2.175286,-2.16434 c -0.359319,-0.3575 -1.610902,0.82491 -1.41388,1.33574 0.116135,0.30112 0.315248,0.22614 0.913269,-0.34392 0.506431,-0.48274 0.675532,-0.81777 0.500611,-0.99182 z m 11.961239,-7.4400398 0.902094,-0.92604 -0.903601,-0.92759 -0.903611,-0.92759 -1.009946,0.98122 -1.009936,0.98121 0.84985,0.87242 c 0.467424,0.47983 0.922576,0.87242 1.011453,0.87242 0.08885,0 0.567539,-0.41672 1.063697,-0.92605 z"
       id="path72"
       sodipodi:nodetypes="cssccscscccssscsssssccsccccccsssscscscccccccssssccccsssssccsccccssccccccccccccccccsccccscccssssscssccscccsssscccsscccscssscscssccscsccsccccccss" />
  </g>
</svg>
